<mxfile compressed="false" host="Chrome" modified="2020-08-10T21:12:52.570Z" agent="5.0 (X11; Linux x86_64) AppleWebKit/537.36 (KHTML, like Gecko) Chrome/83.0.4103.116 Safari/537.36" etag="dPo0-8X1WOcgs56cEEa4" version="13.6.0" type="device">
  <diagram id="lXzvkM9uSlQvV6uT09WV" name="Strona-1">
    <mxGraphModel dx="1417" dy="839" grid="1" gridSize="10" guides="1" tooltips="1" connect="1" arrows="1" fold="1" page="1" pageScale="1" pageWidth="827" pageHeight="1169" background="none" math="0" shadow="1">
      <root>
        <mxCell id="0" />
        <mxCell id="1" parent="0" />
        <mxCell id="t5OhKQRQ5g1ediq62rsj-1" value="Pupil&#39;s account created" style="whiteSpace=wrap;html=1;aspect=fixed;fillColor=#ffe6cc;strokeColor=#d79b00;" parent="1" vertex="1">
          <mxGeometry x="90" y="370" width="80" height="80" as="geometry" />
        </mxCell>
        <mxCell id="t5OhKQRQ5g1ediq62rsj-2" value="" style="ellipse;shape=cloud;whiteSpace=wrap;html=1;fillColor=#f5f5f5;strokeColor=#666666;fontColor=#333333;" parent="1" vertex="1">
          <mxGeometry x="20" y="10" width="500" height="250" as="geometry" />
        </mxCell>
        <mxCell id="t5OhKQRQ5g1ediq62rsj-3" value="Event" style="whiteSpace=wrap;html=1;aspect=fixed;fillColor=#ffe6cc;strokeColor=#d79b00;" parent="1" vertex="1">
          <mxGeometry x="120" y="90" width="70" height="70" as="geometry" />
        </mxCell>
        <mxCell id="t5OhKQRQ5g1ediq62rsj-5" value="Access data sent" style="whiteSpace=wrap;html=1;aspect=fixed;fillColor=#ffe6cc;strokeColor=#d79b00;" parent="1" vertex="1">
          <mxGeometry x="180" y="370" width="80" height="80" as="geometry" />
        </mxCell>
        <mxCell id="t5OhKQRQ5g1ediq62rsj-6" value="The application was printed" style="whiteSpace=wrap;html=1;aspect=fixed;fillColor=#ffe6cc;strokeColor=#d79b00;" parent="1" vertex="1">
          <mxGeometry x="600" y="370" width="80" height="80" as="geometry" />
        </mxCell>
        <mxCell id="t5OhKQRQ5g1ediq62rsj-10" value="Primary school leaving certificate confirmed (original provided)" style="whiteSpace=wrap;html=1;aspect=fixed;fillColor=#ffe6cc;strokeColor=#d79b00;" parent="1" vertex="1">
          <mxGeometry x="780" y="370" width="80" height="80" as="geometry" />
        </mxCell>
        <mxCell id="t5OhKQRQ5g1ediq62rsj-12" value="A certificate of examination results confirmed (document provided&amp;nbsp; to school)" style="whiteSpace=wrap;html=1;aspect=fixed;fillColor=#ffe6cc;strokeColor=#d79b00;" parent="1" vertex="1">
          <mxGeometry x="1070" y="370" width="80" height="80" as="geometry" />
        </mxCell>
        <mxCell id="t5OhKQRQ5g1ediq62rsj-13" value="Personal data entered" style="whiteSpace=wrap;html=1;aspect=fixed;fillColor=#ffe6cc;strokeColor=#d79b00;" parent="1" vertex="1">
          <mxGeometry x="270" y="370" width="80" height="80" as="geometry" />
        </mxCell>
        <mxCell id="t5OhKQRQ5g1ediq62rsj-14" value="Preferred schools and grades were selected" style="whiteSpace=wrap;html=1;aspect=fixed;fillColor=#ffe6cc;strokeColor=#d79b00;" parent="1" vertex="1">
          <mxGeometry x="510" y="370" width="80" height="80" as="geometry" />
        </mxCell>
        <mxCell id="t5OhKQRQ5g1ediq62rsj-15" value="Pupils qualification has been made" style="whiteSpace=wrap;html=1;aspect=fixed;fillColor=#ffe6cc;strokeColor=#d79b00;" parent="1" vertex="1">
          <mxGeometry x="1330" y="370" width="80" height="80" as="geometry" />
        </mxCell>
        <mxCell id="t5OhKQRQ5g1ediq62rsj-16" value="The will to learn was confirmed" style="whiteSpace=wrap;html=1;aspect=fixed;fillColor=#ffe6cc;strokeColor=#d79b00;" parent="1" vertex="1">
          <mxGeometry x="1560" y="370" width="80" height="80" as="geometry" />
        </mxCell>
        <mxCell id="t5OhKQRQ5g1ediq62rsj-18" value="Exam results were entered" style="whiteSpace=wrap;html=1;aspect=fixed;fillColor=#ffe6cc;strokeColor=#d79b00;" parent="1" vertex="1">
          <mxGeometry x="1230" y="370" width="80" height="80" as="geometry" />
        </mxCell>
        <mxCell id="t5OhKQRQ5g1ediq62rsj-19" value="Grades from the primary school leaving certificate entered" style="whiteSpace=wrap;html=1;aspect=fixed;fillColor=#ffe6cc;strokeColor=#d79b00;" parent="1" vertex="1">
          <mxGeometry x="360" y="370" width="80" height="80" as="geometry" />
        </mxCell>
        <mxCell id="t5OhKQRQ5g1ediq62rsj-20" value="Command" style="whiteSpace=wrap;html=1;aspect=fixed;fillColor=#dae8fc;strokeColor=#6c8ebf;" parent="1" vertex="1">
          <mxGeometry x="210" y="60" width="70" height="70" as="geometry" />
        </mxCell>
        <mxCell id="t5OhKQRQ5g1ediq62rsj-21" value="View" style="whiteSpace=wrap;html=1;aspect=fixed;fillColor=#d5e8d4;strokeColor=#82b366;" parent="1" vertex="1">
          <mxGeometry x="305" y="70" width="70" height="70" as="geometry" />
        </mxCell>
        <mxCell id="t5OhKQRQ5g1ediq62rsj-22" value="Problem" style="whiteSpace=wrap;html=1;aspect=fixed;fillColor=#fa6800;strokeColor=#C73500;fontColor=#ffffff;" parent="1" vertex="1">
          <mxGeometry x="390" y="120" width="70" height="70" as="geometry" />
        </mxCell>
        <mxCell id="t5OhKQRQ5g1ediq62rsj-24" value="System" style="whiteSpace=wrap;html=1;aspect=fixed;fillColor=#f8cecc;strokeColor=#b85450;" parent="1" vertex="1">
          <mxGeometry x="305" y="150" width="70" height="70" as="geometry" />
        </mxCell>
        <mxCell id="t5OhKQRQ5g1ediq62rsj-27" value="HostSpot" style="whiteSpace=wrap;html=1;aspect=fixed;fillColor=#e1d5e7;strokeColor=#9673a6;" parent="1" vertex="1">
          <mxGeometry x="210" y="160" width="70" height="70" as="geometry" />
        </mxCell>
        <mxCell id="t5OhKQRQ5g1ediq62rsj-28" value="Summary report prepared" style="whiteSpace=wrap;html=1;aspect=fixed;fillColor=#ffe6cc;strokeColor=#d79b00;" parent="1" vertex="1">
          <mxGeometry x="1670" y="370" width="80" height="80" as="geometry" />
        </mxCell>
        <mxCell id="t5OhKQRQ5g1ediq62rsj-29" value="Lists of students admitted to the school published" style="whiteSpace=wrap;html=1;aspect=fixed;fillColor=#ffe6cc;strokeColor=#d79b00;" parent="1" vertex="1">
          <mxGeometry x="1430" y="370" width="80" height="80" as="geometry" />
        </mxCell>
        <mxCell id="B7Io2X8DyEBHU4sKK-Hk-1" value="Primary School" style="shape=actor;whiteSpace=wrap;html=1;verticalAlign=bottom;labelBackgroundColor=none;fillColor=#fff2cc;strokeColor=#d6b656;" vertex="1" parent="1">
          <mxGeometry x="40" y="330" width="50" height="60" as="geometry" />
        </mxCell>
        <mxCell id="B7Io2X8DyEBHU4sKK-Hk-2" value="Pupil" style="shape=actor;whiteSpace=wrap;html=1;verticalAlign=bottom;labelBackgroundColor=none;fillColor=#fff2cc;strokeColor=#d6b656;" vertex="1" parent="1">
          <mxGeometry x="460" y="320" width="50" height="60" as="geometry" />
        </mxCell>
        <mxCell id="B7Io2X8DyEBHU4sKK-Hk-3" value="Secondary School" style="shape=actor;whiteSpace=wrap;html=1;verticalAlign=bottom;labelBackgroundColor=none;fillColor=#fff2cc;strokeColor=#d6b656;" vertex="1" parent="1">
          <mxGeometry x="1180" y="330" width="50" height="60" as="geometry" />
        </mxCell>
        <mxCell id="B7Io2X8DyEBHU4sKK-Hk-5" value="The application delivered to secondary school&amp;nbsp;" style="whiteSpace=wrap;html=1;aspect=fixed;fillColor=#ffe6cc;strokeColor=#d79b00;" vertex="1" parent="1">
          <mxGeometry x="690" y="370" width="80" height="80" as="geometry" />
        </mxCell>
        <mxCell id="B7Io2X8DyEBHU4sKK-Hk-6" value="Primary School" style="shape=actor;whiteSpace=wrap;html=1;verticalAlign=bottom;labelBackgroundColor=none;fillColor=#fff2cc;strokeColor=#d6b656;" vertex="1" parent="1">
          <mxGeometry x="890" y="320" width="50" height="60" as="geometry" />
        </mxCell>
        <mxCell id="B7Io2X8DyEBHU4sKK-Hk-7" value="A certificate of examination results Issued" style="whiteSpace=wrap;html=1;aspect=fixed;labelBackgroundColor=none;fillColor=#ffe6cc;strokeColor=#d79b00;" vertex="1" parent="1">
          <mxGeometry x="930" y="370" width="80" height="80" as="geometry" />
        </mxCell>
        <mxCell id="B7Io2X8DyEBHU4sKK-Hk-8" value="Pupil" style="shape=actor;whiteSpace=wrap;html=1;verticalAlign=bottom;labelBackgroundColor=none;fillColor=#fff2cc;strokeColor=#d6b656;" vertex="1" parent="1">
          <mxGeometry x="1020" y="330" width="50" height="60" as="geometry" />
        </mxCell>
        <mxCell id="B7Io2X8DyEBHU4sKK-Hk-10" value="Pupil" style="shape=actor;whiteSpace=wrap;html=1;verticalAlign=bottom;labelBackgroundColor=none;fillColor=#fff2cc;strokeColor=#d6b656;" vertex="1" parent="1">
          <mxGeometry x="1510" y="320" width="50" height="60" as="geometry" />
        </mxCell>
        <mxCell id="B7Io2X8DyEBHU4sKK-Hk-11" value="Summary report confirmed" style="whiteSpace=wrap;html=1;aspect=fixed;fillColor=#ffe6cc;strokeColor=#d79b00;" vertex="1" parent="1">
          <mxGeometry x="1770" y="370" width="80" height="80" as="geometry" />
        </mxCell>
        <mxCell id="B7Io2X8DyEBHU4sKK-Hk-12" value="Summary report sent to GUS" style="whiteSpace=wrap;html=1;aspect=fixed;fillColor=#ffe6cc;strokeColor=#d79b00;" vertex="1" parent="1">
          <mxGeometry x="1870" y="370" width="80" height="80" as="geometry" />
        </mxCell>
        <mxCell id="B7Io2X8DyEBHU4sKK-Hk-13" value="Summary report sent to MEN" style="whiteSpace=wrap;html=1;aspect=fixed;fillColor=#ffe6cc;strokeColor=#d79b00;" vertex="1" parent="1">
          <mxGeometry x="1980" y="370" width="80" height="80" as="geometry" />
        </mxCell>
      </root>
    </mxGraphModel>
  </diagram>
</mxfile>
